<svg xmlns="http://www.w3.org/2000/svg" width="180" height="180" viewBox="0 0 180 180">
  <!-- Light background with rounded corners (Apple touch icon) -->
  <rect width="180" height="180" rx="30" fill="#f8f9fa"/>

  <!-- Forest icon - Material Symbols "forest" -->
  <!-- Centered tree symbols representing Norwegian forest -->
  <g transform="translate(90, 90)">
    <!-- Left tree -->
    <path d="M-28,-19 L-37,0 L-28,0 L-33,9 L-28,9 L-33,23 L-23,23 L-23,9 L-19,9 L-23,0 L-14,0 Z" fill="#3e4533"/>
    <!-- Center tree (taller) -->
    <path d="M-5,-28 L-17,-5 L-9,-5 L-14,8 L-9,8 L-17,28 L8,28 L0,8 L5,8 L0,-5 L8,-5 Z" fill="#3e4533"/>
    <!-- Right tree -->
    <path d="M14,-19 L5,0 L14,0 L9,9 L14,9 L9,23 L19,23 L19,9 L23,9 L19,0 L28,0 Z" fill="#3e4533"/>
  </g>
</svg>
