<svg xmlns="http://www.w3.org/2000/svg" width="180" height="180" viewBox="0 0 180 180">
  <!-- Light background with rounded corners (Apple touch icon) -->
  <rect width="180" height="180" rx="30" fill="#f8f9fa"/>

  <!-- Material Symbols forest icon centered and scaled -->
  <g transform="translate(90, 90) scale(4.7)">
    <path d="M24 18l-3.86-6H22L15 2l-3 4.29L9 2L2 12h1.86L0 18h7v4h4v-4h2v4h4v-4h7zM15 5.49L18.16 10h-1.68l3.86 6h-3.62l-2.57-4H16l-2.78-3.97L15 5.49zM3.66 16l3.86-6H5.84L9 5.49L12.16 10h-1.68l3.86 6H3.66z"
          transform="translate(-12, -13)"
          fill="#3e4533"/>
  </g>
</svg>
